G04 Layer: BottomSilkscreenLayer*
G04 EasyEDA Pro v2.1.51.8c9149c1.e57db4, 2024-04-09 19:57:42*
G04 Gerber Generator version 0.3*
G04 Scale: 100 percent, Rotated: No, Reflected: No*
G04 Dimensions in millimeters*
G04 Leading zeros omitted, absolute positions, 3 integers and 5 decimals*
%FSLAX35Y35*%
%MOMM*%
%ADD10C,0.254*%
%ADD11C,0.18288*%
G75*


G04 Text Start*
G54D10*
G01X3849916Y-1138678D02*
G01X3849916Y-1255264D01*
G01X3849916Y-1138678D02*
G01X3799878Y-1138678D01*
G01X3783114Y-1144012D01*
G01X3777780Y-1149600D01*
G01X3772192Y-1160776D01*
G01Y-1171952D01*
G01X3777780Y-1183128D01*
G01X3783114Y-1188462D01*
G01X3799878Y-1194050D01*
G01X3849916D01*
G01X3811054Y-1194050D02*
G01X3772192Y-1255264D01*
G01X3720122Y-1138678D02*
G01X3720122Y-1255264D01*
G01X3720122Y-1138678D02*
G01X3647986Y-1138678D01*
G01X3720122Y-1194050D02*
G01X3675672Y-1194050D01*
G01X3393732Y-1155188D02*
G01X3404654Y-1144012D01*
G01X3421418Y-1138678D01*
G01X3443770D01*
G01X3460280Y-1144012D01*
G01X3471456Y-1155188D01*
G01Y-1166364D01*
G01X3465868Y-1177540D01*
G01X3460280Y-1183128D01*
G01X3449104Y-1188462D01*
G01X3415830Y-1199638D01*
G01X3404654Y-1205226D01*
G01X3399320Y-1210814D01*
G01X3393732Y-1221990D01*
G01Y-1238500D01*
G01X3404654Y-1249676D01*
G01X3421418Y-1255264D01*
G01X3443770D01*
G01X3460280Y-1249676D01*
G01X3471456Y-1238500D01*
G01X3274860Y-1194050D02*
G01X3286036Y-1183128D01*
G01X3297212Y-1177540D01*
G01X3313976D01*
G01X3324898Y-1183128D01*
G01X3336074Y-1194050D01*
G01X3341662Y-1210814D01*
G01Y-1221990D01*
G01X3336074Y-1238500D01*
G01X3324898Y-1249676D01*
G01X3313976Y-1255264D01*
G01X3297212D01*
G01X3286036Y-1249676D01*
G01X3274860Y-1238500D01*
G01X3222790Y-1177540D02*
G01X3222790Y-1255264D01*
G01X3222790Y-1210814D02*
G01X3217202Y-1194050D01*
G01X3206026Y-1183128D01*
G01X3195104Y-1177540D01*
G01X3178340D01*
G01X3126270Y-1210814D02*
G01X3059468Y-1210814D01*
G01Y-1199638D01*
G01X3065056Y-1188462D01*
G01X3070644Y-1183128D01*
G01X3081820Y-1177540D01*
G01X3098584D01*
G01X3109506Y-1183128D01*
G01X3120682Y-1194050D01*
G01X3126270Y-1210814D01*
G01Y-1221990D01*
G01X3120682Y-1238500D01*
G01X3109506Y-1249676D01*
G01X3098584Y-1255264D01*
G01X3081820D01*
G01X3070644Y-1249676D01*
G01X3059468Y-1238500D01*
G01X3007398Y-1210814D02*
G01X2940596Y-1210814D01*
G01Y-1199638D01*
G01X2946184Y-1188462D01*
G01X2951772Y-1183128D01*
G01X2962948Y-1177540D01*
G01X2979712D01*
G01X2990634Y-1183128D01*
G01X3001810Y-1194050D01*
G01X3007398Y-1210814D01*
G01Y-1221990D01*
G01X3001810Y-1238500D01*
G01X2990634Y-1249676D01*
G01X2979712Y-1255264D01*
G01X2962948D01*
G01X2951772Y-1249676D01*
G01X2940596Y-1238500D01*
G01X2888526Y-1177540D02*
G01X2888526Y-1255264D01*
G01X2888526Y-1199638D02*
G01X2871762Y-1183128D01*
G01X2860840Y-1177540D01*
G01X2844076D01*
G01X2832900Y-1183128D01*
G01X2827312Y-1199638D01*
G01Y-1255264D01*
G01X2606332Y-1138678D02*
G01X2650782Y-1255264D01*
G01X2606332Y-1138678D02*
G01X2561882Y-1255264D01*
G01X2634018Y-1216402D02*
G01X2578646Y-1216402D01*
G01X2509812Y-1177540D02*
G01X2509812Y-1255264D01*
G01X2509812Y-1210814D02*
G01X2504224Y-1194050D01*
G01X2493048Y-1183128D01*
G01X2482126Y-1177540D01*
G01X2465362D01*
G01X2413292Y-1210814D02*
G01X2346490Y-1210814D01*
G01Y-1199638D01*
G01X2352078Y-1188462D01*
G01X2357666Y-1183128D01*
G01X2368842Y-1177540D01*
G01X2385606D01*
G01X2396528Y-1183128D01*
G01X2407704Y-1194050D01*
G01X2413292Y-1210814D01*
G01Y-1221990D01*
G01X2407704Y-1238500D01*
G01X2396528Y-1249676D01*
G01X2385606Y-1255264D01*
G01X2368842D01*
G01X2357666Y-1249676D01*
G01X2346490Y-1238500D01*
G01X2227618Y-1177540D02*
G01X2227618Y-1255264D01*
G01X2227618Y-1194050D02*
G01X2238794Y-1183128D01*
G01X2249970Y-1177540D01*
G01X2266734D01*
G01X2277656Y-1183128D01*
G01X2288832Y-1194050D01*
G01X2294420Y-1210814D01*
G01Y-1221990D01*
G01X2288832Y-1238500D01*
G01X2277656Y-1249676D01*
G01X2266734Y-1255264D01*
G01X2249970D01*
G01X2238794Y-1249676D01*
G01X2227618Y-1238500D01*
G04 Text End*

G04 PolygonModel Start*
G54D11*
G01X5878843Y-1034467D02*
G01X5888576Y-3808548D01*
G01X261358Y-1985761D02*
G01X257443Y-3653306D01*
G01X5764886Y-1023632D02*
G01X393882Y-3795870D01*
G54D10*
G01X-400604Y-2863042D02*
G01X-270604Y-2863042D01*
G01X-400604Y-2763042D02*
G01X-270604Y-2763042D01*
G01X-400604Y-2863042D02*
G01X-400604Y-2763042D01*
G01X6334198Y-1245928D02*
G01X6204198Y-1245928D01*
G01X6334198Y-1345928D02*
G01X6204198Y-1345928D01*
G01X6334198Y-1245928D02*
G01X6334198Y-1345928D01*
G01X-400604Y-3143464D02*
G01X-270604Y-3143464D01*
G01X-400604Y-3043464D02*
G01X-270604Y-3043464D01*
G01X-400604Y-3143464D02*
G01X-400604Y-3043464D01*
G01X6334198Y-3543160D02*
G01X6204198Y-3543160D01*
G01X6334198Y-3643160D02*
G01X6204198Y-3643160D01*
G01X6334198Y-3543160D02*
G01X6334198Y-3643160D01*
G04 PolygonModel End*

M02*
