G04 Layer: InnerLayer2*
G04 EasyEDA Pro v2.1.51.8c9149c1.e57db4, 2024-04-09 19:57:42*
G04 Gerber Generator version 0.3*
G04 Scale: 100 percent, Rotated: No, Reflected: No*
G04 Dimensions in millimeters*
G04 Leading zeros omitted, absolute positions, 3 integers and 5 decimals*
%FSLAX35Y35*%
%MOMM*%
%ADD10C,1.0*%
%ADD11C,0.6096*%
%ADD12C,0.6*%
%ADD13C,0.18288*%
%ADD14C,0.18161*%
G75*


G04 Via Start*
G54D10*
G01X203200Y-2425700D03*
G01X508000Y-3289300D03*
G01X190500Y-3225800D03*
G54D11*
G01X5753100Y-3606800D03*
G54D12*
G01X1821956Y-2432397D03*
G01X1746870Y-2432988D03*
G54D11*
G01X709478Y-2665537D03*
G04 Via End*

G04 Track Start*
G54D10*
G01X508000Y-2540000D02*
G01X635000Y-2413000D01*
G01Y-1384300D01*
G01X787400Y-1231900D01*
G01X5499100D01*
G01X5613400Y-1346200D01*
G01Y-3022600D01*
G01X5067300Y-3568700D01*
G01X558800D01*
G01X355600Y-3365500D01*
G01Y-2476500D01*
G01X444500Y-2387600D01*
G01Y-1358900D01*
G01X711200Y-1092200D01*
G01X5638800D01*
G01X5791200Y-1244600D02*
G01X5791200Y-3073400D01*
G01X5156200Y-3708400D01*
G01X482600Y-3708400D02*
G01X190500Y-3416300D01*
G01Y-3225800D01*
G01X508000Y-2540000D02*
G01X508000Y-3289300D01*
G01X5638800Y-1092200D02*
G01X5791200Y-1244600D01*
G01X5156200Y-3708400D02*
G01X482600Y-3708400D01*
G54D13*
G01X773380Y-1506563D02*
G01X773380Y-2596719D01*
G01X822834Y-1457109D02*
G01X773380Y-1506563D01*
G01X808178Y-3265161D02*
G01X808178Y-1521866D01*
G01X807595Y-1522359D02*
G01X838046Y-1491907D01*
G01X842976Y-3248903D02*
G01X842976Y-1535167D01*
G01X851437Y-1526705D01*
G01X932045Y-3389029D02*
G01X808178Y-3265161D01*
G01X877800Y-3233659D02*
G01X877800Y-1564307D01*
G01X880577Y-1561530D01*
G01X948396Y-3354324D02*
G01X842976Y-3248903D01*
G01X912598Y-3218083D02*
G01X912598Y-1596705D01*
G01X963667Y-3319526D02*
G01X877800Y-3233659D01*
G01X979243Y-3284728D02*
G01X912598Y-3218083D01*
G01X947396Y-3203371D02*
G01X947396Y-1637660D01*
G01X953931Y-1631126D01*
G01X993955Y-3249930D02*
G01X947396Y-3203371D01*
G54D14*
G01X982194Y-3187880D02*
G01X982194Y-3185976D01*
G54D13*
G01X982194Y-1672878D02*
G01X982194Y-3185976D01*
G01X982194Y-1672878D02*
G01X989149Y-1665924D01*
G54D14*
G01X1009529Y-3215216D02*
G01X982194Y-3187880D01*
G54D13*
G01X1016899Y-3171306D02*
G01X1016899Y-1710504D01*
G01X1024646Y-1702756D01*
G01X1025917Y-3180324D02*
G01X1016899Y-3171306D01*
G54D14*
G01X1051378Y-3108691D02*
G01X1051378Y-1735520D01*
G54D13*
G01X1051378Y-3142867D02*
G01X1051378Y-3108691D01*
G01X1054130Y-3145620D02*
G01X1051378Y-3142867D01*
G01X1086505Y-1770234D02*
G01X1086505Y-3108040D01*
G01X1089149Y-3110822D02*
G01X1086367Y-3108040D01*
G01X1121303Y-1805032D02*
G01X1121303Y-3071801D01*
G01X1121954Y-3072453D01*
G01X1124223Y-3076024D02*
G01X1121520Y-3073321D01*
G01X1156101Y-3041226D02*
G01X1155824Y-3041226D01*
G01X1156101Y-1839830D02*
G01X1156101Y-3041226D01*
G01X1190899Y-2998871D02*
G01X1190899Y-1874628D01*
G54D14*
G01X1194197Y-3006342D02*
G01X1190838Y-3002982D01*
G54D13*
G01X1225603Y-1909332D02*
G01X1225603Y-2966767D01*
G01X1226718Y-2971450D02*
G01X1225814Y-2970546D01*
G54D14*
G01X1260495Y-1947631D02*
G01X1260495Y-2930239D01*
G01X1263901Y-1944224D02*
G01X1260495Y-1947631D01*
G54D13*
G01X1264312Y-2936746D02*
G01X1260596Y-2933030D01*
G01X1295378Y-1979108D02*
G01X1295378Y-2891389D01*
G01X1302712Y-2901948D02*
G01X1295604Y-2894840D01*
G01X1330176Y-2022463D02*
G01X1330176Y-2864604D01*
G01X1330902Y-2865329D01*
G01X1330176Y-2022463D02*
G01X1338733Y-2013906D01*
G01X1364974Y-2811737D02*
G01X1364974Y-2048704D01*
G01X1365331Y-2812094D02*
G01X1364974Y-2811737D01*
G01X1381195Y-2832352D02*
G01X1364698Y-2815855D01*
G01X1399772Y-2789738D02*
G01X1399772Y-2090060D01*
G01X1399772Y-2789738D02*
G01X1400936Y-2790901D01*
G01X1399772Y-2090060D02*
G01X1406330Y-2083502D01*
G54D14*
G01X1407021Y-2797637D02*
G01X1401804Y-2792420D01*
G54D13*
G01X1434477Y-2752160D02*
G01X1434477Y-2128264D01*
G01X1442362Y-2762746D02*
G01X1434594Y-2754977D01*
G01X1434477Y-2128264D02*
G01X1444535Y-2118207D01*
G54D14*
G01X1469368Y-2722388D02*
G01X1469368Y-2157168D01*
G01X1469368Y-2722388D02*
G01X1473089Y-2726109D01*
G01X1469368Y-2157168D02*
G01X1473439Y-2153098D01*
G54D13*
G01X1504083Y-2687772D02*
G01X1504083Y-2201005D01*
G01X1505710Y-2693243D02*
G01X1504186Y-2691719D01*
G01X1504083Y-2201005D02*
G01X1517275Y-2187812D01*
G01X1538881Y-2656687D02*
G01X1538881Y-2223493D01*
G01X1539763Y-2222610D02*
G01X1538881Y-2223493D01*
G01X1538881Y-2656687D02*
G01X1540641Y-2658447D01*
G01X1573679Y-2622819D02*
G01X1573679Y-2257408D01*
G01X1573679Y-2622819D02*
G01X1574507Y-2623647D01*
G01X1608477Y-2585017D02*
G01X1608477Y-2292771D01*
G01X1609041Y-2292206D01*
G01X1643181Y-2329240D02*
G01X1643181Y-2552435D01*
G01X1644423Y-2554025D02*
G01X1643296Y-2552898D01*
G01X1643181Y-2329240D02*
G01X1645510Y-2326911D01*
G54D14*
G01X1678073Y-2519227D02*
G01X1678073Y-2361802D01*
G54D13*
G01X5011180Y-3354324D02*
G01X948396Y-3354324D01*
G01X4996039Y-3319526D02*
G01X963667Y-3319526D01*
G01X4981626Y-3284728D02*
G01X979243Y-3284728D01*
G01X4967212Y-3249930D02*
G01X993955Y-3249930D01*
G01X1025917Y-3180324D02*
G01X4936228Y-3180324D01*
G54D14*
G01X4952832Y-3215216D02*
G01X1009529Y-3215216D01*
G54D13*
G01X932045Y-3389029D02*
G01X5036708Y-3389029D01*
G01X4921853Y-3145620D02*
G01X1054130Y-3145620D01*
G01X4907440Y-3110822D02*
G01X1089149Y-3110822D01*
G01X1124223Y-3076024D02*
G01X4893026Y-3076024D01*
G01X4878612Y-3041226D02*
G01X1156101Y-3041226D01*
G54D14*
G01X1194197Y-3006342D02*
G01X4860691Y-3006342D01*
G54D13*
G01X4846239Y-2971450D02*
G01X1226718Y-2971450D01*
G01X4831864Y-2936746D02*
G01X1264312Y-2936746D01*
G01X1086505Y-1770234D02*
G01X5019700Y-1770234D01*
G01X4817450Y-2901948D02*
G01X1302712Y-2901948D01*
G01X4803036Y-2867150D02*
G01X1333590Y-2867150D01*
G01X4973630Y-1874628D02*
G01X1190899Y-1874628D01*
G01X4942318Y-1909332D02*
G01X1225603Y-1909332D01*
G01X4788622Y-2832352D02*
G01X1381195Y-2832352D01*
G01X4599932Y-2257408D02*
G01X1573679Y-2257408D01*
G54D14*
G01X4767787Y-2797637D02*
G01X1407021Y-2797637D01*
G54D13*
G01X1364974Y-2048704D02*
G01X4810191Y-2048704D01*
G54D14*
G01X5124094Y-1735520D02*
G01X1051378Y-1735520D01*
G01X1678073Y-2361802D02*
G01X4497408Y-2361802D01*
G54D13*
G01X989149Y-1665924D02*
G01X5186630Y-1665924D01*
G01X5019700Y-1839830D02*
G01X1156101Y-1839830D01*
G01X1295378Y-1979108D02*
G01X4880422Y-1979108D01*
G01X1121303Y-1805032D02*
G01X5054498Y-1805032D01*
G01X912635Y-1596328D02*
G01X5263203Y-1596328D01*
G01X4567297Y-2292206D02*
G01X1609041Y-2292206D01*
G01X4636920Y-2222610D02*
G01X1539763Y-2222610D01*
G01X880577Y-1561530D02*
G01X5296974Y-1561530D01*
G01X4532499Y-2326911D02*
G01X1645510Y-2326911D01*
G54D14*
G01X4915220Y-1944224D02*
G01X1263901Y-1944224D01*
G54D13*
G01X4772993Y-2083502D02*
G01X1406330Y-2083502D01*
G01X953931Y-1631126D02*
G01X5225899Y-1631126D01*
G54D14*
G01X4706516Y-2153098D02*
G01X1473439Y-2153098D01*
G54D13*
G01X5153344Y-1700628D02*
G01X1026859Y-1700628D01*
G01X4737338Y-2118207D02*
G01X1444535Y-2118207D01*
G01X851437Y-1526705D02*
G01X5332799Y-1526705D01*
G01X1338733Y-2013906D02*
G01X4845624Y-2013906D01*
G01X1517275Y-2187812D02*
G01X4671718Y-2187812D01*
G01X4753334Y-2762746D02*
G01X1442362Y-2762746D01*
G01X838046Y-1491907D02*
G01X5367503Y-1491907D01*
G01X1678073Y-2519227D02*
G01X4532499Y-2519227D01*
G01X4636920Y-2623647D02*
G01X1574507Y-2623647D01*
G01X4601954Y-2588823D02*
G01X1609698Y-2588823D01*
G01X4567297Y-2554025D02*
G01X1644423Y-2554025D01*
G01X1505710Y-2693243D02*
G01X4706516Y-2693243D01*
G01X4738959Y-2728041D02*
G01X1476372Y-2728041D01*
G01X4671718Y-2658445D02*
G01X1544111Y-2658445D01*
G01X5402395Y-1457109D02*
G01X822834Y-1457109D01*
G01X1750494Y-2484374D02*
G01X4499735Y-2484374D01*
G54D14*
G01X4497408Y-2361802D02*
G01X4499735Y-2364130D01*
G01Y-2484374D01*
G54D13*
G01X4532499Y-2519227D02*
G01X4532499Y-2326911D01*
G01X4567297Y-2554025D02*
G01X4567297Y-2292206D01*
G01X4602122Y-2259598D02*
G01X4599932Y-2257408D01*
G01X4602122Y-2588654D02*
G01X4602122Y-2259598D01*
G01X4636920Y-2623647D02*
G01X4636920Y-2222610D01*
G01X4671718Y-2658445D02*
G01X4671718Y-2187812D01*
G01X4706516Y-2693243D02*
G01X4706516Y-2153098D01*
G01X4741220Y-2122089D02*
G01X4737338Y-2118207D01*
G01X4738959Y-2728041D02*
G01X4741174Y-2725827D01*
G01X4741220Y-2725780D02*
G01X4741220Y-2122089D01*
G01X4753334Y-2762746D02*
G01X4775933Y-2740147D01*
G54D14*
G01X4767787Y-2797637D02*
G01X4778400Y-2787024D01*
G54D13*
G01X4776112Y-2086621D02*
G01X4772993Y-2083502D01*
G01X4776112Y-2104197D02*
G01X4776112Y-2086621D01*
G01X4810772Y-2754652D02*
G01X4778400Y-2787024D01*
G01X4810191Y-2048704D02*
G01X4810826Y-2049340D01*
G01Y-2754598D01*
G01X4845729Y-2775245D02*
G01X4788622Y-2832352D01*
G01X4880527Y-2789659D02*
G01X4803036Y-2867150D01*
G01X4845624Y-2775141D02*
G01X4845624Y-2013906D01*
G01X4915325Y-2804073D02*
G01X4817450Y-2901948D01*
G01X4880422Y-1979108D02*
G01X4880422Y-2789555D01*
G01X4950095Y-2818514D02*
G01X4831864Y-2936746D01*
G54D14*
G01X4860691Y-3006342D02*
G01X4965689Y-2901344D01*
G54D13*
G01X4915220Y-1944224D02*
G01X4915220Y-2803969D01*
G01X4846239Y-2971450D02*
G01X4984854Y-2832835D01*
G01X4949925Y-1916939D02*
G01X4942318Y-1909332D01*
G01X4949925Y-1916939D02*
G01X4949925Y-2818344D01*
G01X5054578Y-2865259D02*
G01X4878612Y-3041226D01*
G54D14*
G01X4984816Y-1885814D02*
G01X4973630Y-1874628D01*
G01X4984816Y-2832796D02*
G01X4984816Y-1885814D01*
G54D13*
G01X5089197Y-2879853D02*
G01X4893026Y-3076024D01*
G01X5019744Y-2847289D02*
G01X4965689Y-2901344D01*
G01X5123995Y-2894266D02*
G01X4907440Y-3110822D01*
G01X5019700Y-1769889D02*
G01X5019700Y-1770234D01*
G01X5019700Y-2847246D02*
G01X5019700Y-1839830D01*
G01X5158765Y-2908707D02*
G01X4921853Y-3145620D01*
G01X5019700Y-1770234D02*
G01X5078334Y-1770234D01*
G01X5054498Y-2865179D02*
G01X5054498Y-1805032D01*
G01X4936228Y-3180324D02*
G01X5193525Y-2923028D01*
G54D14*
G01X4952832Y-3215216D02*
G01X5200181Y-2967867D01*
G54D13*
G01X5078334Y-1770234D02*
G01X5089296Y-1781196D01*
G01X5089296Y-2879753D02*
G01X5089296Y-1781196D01*
G01X5263198Y-2953944D02*
G01X4967212Y-3249930D01*
G01X5124094Y-2894167D02*
G01X5124094Y-1735520D01*
G01X5295426Y-2970927D02*
G01X4981626Y-3284728D01*
G01X5158799Y-1706083D02*
G01X5153344Y-1700628D01*
G01X5320032Y-2995533D02*
G01X4996039Y-3319526D01*
G01X5158799Y-2908674D02*
G01X5158799Y-2859462D01*
G01Y-1706083D01*
G01X5158799Y-2859462D02*
G01X5159476Y-2858785D01*
G01X5366515Y-2998990D02*
G01X5011180Y-3354324D01*
G01X5186630Y-1665924D02*
G01X5193690Y-1672983D01*
G01X5228459Y-2939589D02*
G01X5200181Y-2967867D01*
G01X5402395Y-3023342D02*
G01X5036708Y-3389029D01*
G01X5225899Y-1631126D02*
G01X5228405Y-1633631D01*
G01Y-2939535D01*
G01X5263203Y-1596328D02*
G01X5263203Y-2953939D01*
G01X5296974Y-1561530D02*
G01X5298001Y-1562557D01*
G01X5298001Y-2969176D02*
G01X5297122Y-2970055D01*
G01X5298001Y-1562557D02*
G01X5298001Y-2969176D01*
G01X5332799Y-2982695D02*
G01X5320557Y-2994937D01*
G01X5332799Y-1526705D02*
G01X5332799Y-2982695D01*
G01X5366515Y-2998339D02*
G01X5366515Y-2998990D01*
G01X5367503Y-2997025D02*
G01X5366759Y-2997769D01*
G01X5367503Y-1491907D02*
G01X5367503Y-2997025D01*
G54D14*
G01X5402395Y-1457109D02*
G01X5402395Y-3023149D01*
G01X4776112Y-2740326D02*
G01X4776112Y-2104197D01*
G01X5193690Y-2923194D02*
G01X5193690Y-1672983D01*
G54D13*
G01X773380Y-2596719D02*
G01X706250Y-2663850D01*
G01X1750294Y-2433415D02*
G01X1744415Y-2439294D01*
G01Y-2478296D01*
G01X1750494Y-2484374D01*
G04 Track End*

M02*
