G04 Layer: InnerLayer1*
G04 EasyEDA Pro v2.1.51.8c9149c1.e57db4, 2024-04-09 19:57:42*
G04 Gerber Generator version 0.3*
G04 Scale: 100 percent, Rotated: No, Reflected: No*
G04 Dimensions in millimeters*
G04 Leading zeros omitted, absolute positions, 3 integers and 5 decimals*
%FSLAX35Y35*%
%MOMM*%
%ADD10C,1.0*%
%ADD11C,0.6096*%
%ADD12C,0.6*%
%ADD13C,0.18288*%
%ADD14C,0.18161*%
G75*


G04 Via Start*
G54D10*
G01X203200Y-2425700D03*
G01X508000Y-3289300D03*
G01X190500Y-3225800D03*
G54D11*
G01X5753100Y-3606800D03*
G54D12*
G01X1821956Y-2432397D03*
G01X1746870Y-2432988D03*
G54D11*
G01X709478Y-2665537D03*
G04 Via End*

G04 Track Start*
G54D10*
G01X203200Y-2425700D02*
G01X381000Y-2247900D01*
G01X381000Y-1320800D02*
G01X520700Y-1181100D01*
G01X5651500D01*
G01X5702300Y-1231900D01*
G01Y-3289300D01*
G01X5207000Y-3784600D01*
G01X698500D01*
G01X355600Y-3441700D01*
G01Y-2540000D01*
G01X533400Y-2362200D01*
G01Y-1409700D01*
G01X609600Y-1333500D01*
G01X5473700D01*
G01X5549900Y-1409700D01*
G01Y-3225800D01*
G01X5143500Y-3632200D01*
G01X774700D01*
G01X508000Y-3365500D01*
G01Y-3289300D01*
G01X381000Y-2247900D02*
G01X381000Y-1320800D01*
G54D13*
G01X801079Y-1509325D02*
G01X801079Y-3282539D01*
G01X878653Y-3409442D02*
G01X766188Y-3296977D01*
G01X801011Y-1509256D02*
G01X845653Y-1464614D01*
G01X835784Y-3268164D02*
G01X835784Y-1523700D01*
G01X893101Y-3374560D02*
G01X801079Y-3282539D01*
G01X835784Y-1523700D02*
G01X860072Y-1499412D01*
G01X870582Y-1538114D02*
G01X870582Y-3253750D01*
G01X835784Y-3268164D02*
G01X907476Y-3339856D01*
G01X870582Y-1538114D02*
G01X874486Y-1534210D01*
G01X870582Y-3253750D02*
G01X921890Y-3305058D01*
G01X905380Y-3239336D02*
G01X905380Y-1569034D01*
G01X905380Y-3239336D02*
G01X936304Y-3270260D01*
G01X940178Y-3220975D02*
G01X940178Y-1603832D01*
G01X940178Y-3220975D02*
G01X954665Y-3235462D01*
G54D14*
G01X974892Y-1638630D02*
G01X974892Y-3200747D01*
G54D13*
G01X1009784Y-3165856D02*
G01X1009784Y-1673428D01*
G01X1044488Y-1708133D02*
G01X1044488Y-3131151D01*
G01X1079286Y-3096353D02*
G01X1079286Y-1743024D01*
G01X1114084Y-3060750D02*
G01X1114084Y-3059847D01*
G01Y-1777739D01*
G01X1115792Y-3061555D02*
G01X1114084Y-3059847D01*
G01X1148882Y-1812537D02*
G01X1148882Y-3026757D01*
G54D14*
G01X1183766Y-2904626D02*
G01X1183125Y-2903985D01*
G01X1183766Y-2991874D02*
G01X1183766Y-2904626D01*
G01X1183766Y-1847335D02*
G01X1183766Y-2904626D01*
G54D13*
G01X1218658Y-2956982D02*
G01X1218658Y-1882133D01*
G01X1253362Y-1916837D02*
G01X1253362Y-2922278D01*
G01X1288160Y-1951729D02*
G01X1288160Y-2887480D01*
G01X1322958Y-1986612D02*
G01X1322958Y-2852682D01*
G01X1357756Y-2021410D02*
G01X1357756Y-2815440D01*
G01X1358544Y-2817884D02*
G01X1357306Y-2819122D01*
G54D14*
G01X1392471Y-2056208D02*
G01X1392471Y-2783169D01*
G54D13*
G01X1427362Y-2091006D02*
G01X1427362Y-2745461D01*
G01X1430179Y-2748278D01*
G01X1462067Y-2125711D02*
G01X1462067Y-2709604D01*
G01X1466343Y-2713880D01*
G01X1496865Y-2675735D02*
G01X1496865Y-2160602D01*
G01X1496865Y-2675735D02*
G01X1498982Y-2677852D01*
G01X1531663Y-2637586D02*
G01X1531663Y-2195206D01*
G01X1537608Y-2643531D02*
G01X1531663Y-2637586D01*
G01X1566461Y-2601577D02*
G01X1566461Y-2237479D01*
G01X1573824Y-2230115D01*
G01X1576448Y-2609179D02*
G01X1567653Y-2600384D01*
G01X1601285Y-2572194D02*
G01X1601285Y-2271878D01*
G01X1601285Y-2572194D02*
G01X1603855Y-2574763D01*
G01X1601285Y-2271878D02*
G01X1608250Y-2264913D01*
G01X1602231Y-2264913D02*
G01X1608250Y-2264913D01*
G01X1636083Y-2535115D02*
G01X1636083Y-2303295D01*
G01Y-2300887D01*
G01X1639667Y-2299711D02*
G01X1636083Y-2303295D01*
G01X1642308Y-2539557D02*
G01X1636975Y-2534223D01*
G01X1678297Y-2334415D02*
G01X1678297Y-2502420D01*
G01X907476Y-3339856D02*
G01X5045738Y-3339856D01*
G01X893101Y-3374560D02*
G01X5060113Y-3374560D01*
G01X921890Y-3305058D02*
G01X5031324Y-3305058D01*
G01X936304Y-3270260D02*
G01X5016911Y-3270260D01*
G01X954665Y-3235462D02*
G01X5002497Y-3235462D01*
G01X878653Y-3409442D02*
G01X5078606Y-3409442D01*
G54D14*
G01X974892Y-3200747D02*
G01X4988118Y-3200747D01*
G54D13*
G01X1009784Y-3165856D02*
G01X4971257Y-3165856D01*
G01X1044488Y-3131151D02*
G01X4950199Y-3131151D01*
G01X1079286Y-3096353D02*
G01X4935786Y-3096353D01*
G01X1115792Y-3061555D02*
G01X4921372Y-3061555D01*
G01X1148882Y-3026757D02*
G01X4898563Y-3026757D01*
G54D14*
G01X1183766Y-2991874D02*
G01X4884113Y-2991874D01*
G54D13*
G01X1218658Y-2956982D02*
G01X4869661Y-2956982D01*
G01X4855286Y-2922278D02*
G01X1253362Y-2922278D01*
G01X4840872Y-2887480D02*
G01X1288160Y-2887480D01*
G01X4826458Y-2852682D02*
G01X1322958Y-2852682D01*
G01X1358544Y-2817884D02*
G01X4796380Y-2817884D01*
G54D14*
G01X1392471Y-2783169D02*
G01X4783220Y-2783169D01*
G54D13*
G01X1430179Y-2748278D02*
G01X4758452Y-2748278D01*
G01X1468355Y-2713573D02*
G01X4725738Y-2713573D01*
G01X4555575Y-2539557D02*
G01X1642308Y-2539557D01*
G01X4661836Y-2643977D02*
G01X1537162Y-2643977D01*
G01X4699539Y-2678775D02*
G01X1500261Y-2678775D01*
G01X4593278Y-2574355D02*
G01X1607726Y-2574355D01*
G01X4523431Y-2504759D02*
G01X1679387Y-2504759D01*
G01X4629751Y-2609179D02*
G01X1576448Y-2609179D01*
G01X4875336Y-2021410D02*
G01X1357756Y-2021410D01*
G01X1678297Y-2334415D02*
G01X4556504Y-2334415D01*
G54D14*
G01X4738396Y-2160602D02*
G01X1496865Y-2160602D01*
G54D13*
G01X5260368Y-1638630D02*
G01X974892Y-1638630D01*
G01X1392471Y-2056208D02*
G01X4842790Y-2056208D01*
G01X940178Y-1603832D02*
G01X5295166Y-1603832D01*
G01X4912386Y-1986612D02*
G01X1322958Y-1986612D01*
G01X5086462Y-1812537D02*
G01X1148882Y-1812537D01*
G01X1531663Y-2195206D02*
G01X4703681Y-2195206D01*
G01X1114084Y-1777739D02*
G01X5121260Y-1777739D01*
G01X905380Y-1569034D02*
G01X5329964Y-1569034D01*
G01X1044488Y-1708133D02*
G01X5190865Y-1708133D01*
G01X4773287Y-2125711D02*
G01X1462067Y-2125711D01*
G01X1009784Y-1673428D02*
G01X5225570Y-1673428D01*
G01X4808003Y-2091006D02*
G01X1427362Y-2091006D01*
G54D14*
G01X4947270Y-1951729D02*
G01X1288160Y-1951729D01*
G54D13*
G01X5051664Y-1847335D02*
G01X1183766Y-1847335D01*
G01X1218658Y-1882133D02*
G01X5016866Y-1882133D01*
G01X1253362Y-1916837D02*
G01X4982161Y-1916837D01*
G54D14*
G01X1079286Y-1743024D02*
G01X5156386Y-1743024D01*
G54D13*
G01X1639667Y-2299711D02*
G01X4599287Y-2299711D01*
G01X5364788Y-1534210D02*
G01X874486Y-1534210D01*
G01X1573824Y-2230115D02*
G01X4665576Y-2230115D01*
G01X1608250Y-2264913D02*
G01X4634085Y-2264913D01*
G01X860072Y-1499412D02*
G01X5399586Y-1499412D01*
G01X5434384Y-1464614D02*
G01X845653Y-1464614D01*
G54D14*
G01X4527871Y-2499307D02*
G01X4522613Y-2504565D01*
G01X4527871Y-2369196D02*
G01X4527871Y-2499307D01*
G54D13*
G01X4564583Y-2527338D02*
G01X4553970Y-2537951D01*
G01X4564583Y-2342494D02*
G01X4556504Y-2334415D01*
G01X4564583Y-2342494D02*
G01X4564583Y-2527338D01*
G01X4593278Y-2574355D02*
G01X4597949Y-2569683D01*
G01X4599287Y-2571021D02*
G01X4599287Y-2299711D01*
G01X4629751Y-2609179D02*
G01X4632235Y-2606695D01*
G01X4634085Y-2604577D02*
G01X4633572Y-2605090D01*
G01X4634085Y-2604577D02*
G01X4634085Y-2264913D01*
G01X4668883Y-2634254D02*
G01X4660498Y-2642639D01*
G01X4665576Y-2230115D02*
G01X4668883Y-2233422D01*
G01Y-2634254D01*
G01X4703131Y-2675184D02*
G01X4699539Y-2678775D01*
G01X4703681Y-2195206D02*
G01X4703681Y-2675703D01*
G01X4725738Y-2713573D02*
G01X4738396Y-2700916D01*
G54D14*
G01X4738396Y-2160602D01*
G54D13*
G01X4758452Y-2748278D02*
G01X4773287Y-2733442D01*
G01Y-2125711D01*
G54D14*
G01X4783220Y-2783169D02*
G01X4808003Y-2758386D01*
G01Y-2727147D01*
G54D13*
G01X4808003Y-2727085D02*
G01X4808003Y-2091006D01*
G01X4796380Y-2817884D02*
G01X4842790Y-2771474D01*
G01Y-2056208D01*
G01X4877588Y-2801552D02*
G01X4826458Y-2852682D01*
G01X4877588Y-2023662D02*
G01X4875336Y-2021410D01*
G01X4912386Y-2815966D02*
G01X4840872Y-2887480D01*
G01X4877588Y-2801552D02*
G01X4877588Y-2023662D01*
G01X4947270Y-2830294D02*
G01X4855286Y-2922278D01*
G01X4912386Y-1986612D02*
G01X4912386Y-2815966D01*
G01X4982161Y-2844482D02*
G01X4869661Y-2956982D01*
G54D14*
G01X4947270Y-2830294D02*
G01X4947270Y-1951729D01*
G01X5016866Y-2859121D02*
G01X4884113Y-2991874D01*
G54D13*
G01X4898563Y-3026757D02*
G01X5051664Y-2873657D01*
G01X4982161Y-2845654D02*
G01X4982161Y-2844482D01*
G01X4982161Y-2844381D02*
G01X4982161Y-1916837D01*
G01X5086462Y-2896466D02*
G01X4921372Y-3061555D01*
G01X5016866Y-2858946D02*
G01X5016866Y-1882133D01*
G01X4935786Y-3096353D02*
G01X5121260Y-2910880D01*
G01X5051664Y-2873657D02*
G01X5051664Y-1847335D01*
G01X4950199Y-3131151D02*
G01X5156386Y-2924964D01*
G01X4971257Y-3165856D02*
G01X5190865Y-2946248D01*
G01X5086462Y-1812537D02*
G01X5086462Y-2896466D01*
G54D14*
G01X5225570Y-2963295D02*
G01X4988118Y-3200747D01*
G54D13*
G01X5121260Y-1777739D02*
G01X5121260Y-2910880D01*
G01X5002497Y-3235462D02*
G01X5260368Y-2977591D01*
G01X5016911Y-3270260D02*
G01X5295166Y-2992005D01*
G54D14*
G01X5156386Y-1743024D02*
G01X5156386Y-2924964D01*
G54D13*
G01X5031324Y-3305058D02*
G01X5329964Y-3006418D01*
G01X5190865Y-2946248D02*
G01X5190865Y-1708133D01*
G01X5045738Y-3339856D02*
G01X5364788Y-3020806D01*
G01X5225570Y-2963295D02*
G01X5225570Y-1673428D01*
G01X5060113Y-3374560D02*
G01X5399586Y-3035087D01*
G01X5078606Y-3409442D02*
G01X5434384Y-3053664D01*
G01X5260368Y-2977591D02*
G01X5260368Y-1638630D01*
G01X5295166Y-1673428D02*
G01X5295166Y-2992005D01*
G01X5295166Y-1673428D02*
G01X5295166Y-1603832D01*
G01X5296370Y-1674632D02*
G01X5295166Y-1673428D01*
G01X5329964Y-1673428D02*
G01X5328760Y-1674632D01*
G01X5329964Y-1673428D02*
G01X5329964Y-1569034D01*
G01X5329964Y-3006418D02*
G01X5329964Y-1673428D01*
G01X5364788Y-1534210D02*
G01X5364788Y-3020806D01*
G01X5399586Y-1499412D02*
G01X5399586Y-3035087D01*
G01X5434384Y-1464614D02*
G01X5434384Y-3053664D01*
G54D14*
G01X766188Y-3296977D02*
G01X766188Y-2725076D01*
G01X708469Y-2667357D01*
G54D13*
G01X1813046Y-2428859D02*
G01X1821972Y-2419932D01*
G01Y-2372875D01*
G01X1825651Y-2369196D02*
G01X4527871Y-2369196D01*
G01X1821972Y-2372875D02*
G01X1825651Y-2369196D01*
G04 Track End*

M02*
