G04 Layer: TopSilkscreenLayer*
G04 EasyEDA Pro v2.1.51.8c9149c1.e57db4, 2024-04-09 19:57:42*
G04 Gerber Generator version 0.3*
G04 Scale: 100 percent, Rotated: No, Reflected: No*
G04 Dimensions in millimeters*
G04 Leading zeros omitted, absolute positions, 3 integers and 5 decimals*
%FSLAX35Y35*%
%MOMM*%
%ADD10C,0.1778*%
%ADD11C,0.18288*%
G75*


G04 Text Start*
G54D10*
G01X5978141Y-2533162D02*
G01X5889749Y-2533162D01*
G01X5978141Y-2533162D02*
G01X5978141Y-2587772D01*
G01X5935977Y-2533162D02*
G01X5935977Y-2566944D01*
G01X5978141Y-2625872D02*
G01X5889749Y-2625872D01*
G01X5978141Y-2663972D02*
G01X5973823Y-2668036D01*
G01X5978141Y-2672354D01*
G01X5982205Y-2668036D01*
G01X5978141Y-2663972D01*
G01X5948677Y-2668036D02*
G01X5889749Y-2668036D01*
G01X5948677Y-2710454D02*
G01X5860285Y-2710454D01*
G01X5935977Y-2710454D02*
G01X5944359Y-2718836D01*
G01X5948677Y-2727218D01*
G01Y-2739664D01*
G01X5944359Y-2748300D01*
G01X5935977Y-2756682D01*
G01X5923277Y-2760746D01*
G01X5914895D01*
G01X5902449Y-2756682D01*
G01X5893813Y-2748300D01*
G01X5889749Y-2739664D01*
G01Y-2727218D01*
G01X5893813Y-2718836D01*
G01X5902449Y-2710454D01*
G01X5948677Y-2798846D02*
G01X5860285Y-2798846D01*
G01X5935977Y-2798846D02*
G01X5944359Y-2807228D01*
G01X5948677Y-2815610D01*
G01Y-2828056D01*
G01X5944359Y-2836692D01*
G01X5935977Y-2845074D01*
G01X5923277Y-2849138D01*
G01X5914895D01*
G01X5902449Y-2845074D01*
G01X5893813Y-2836692D01*
G01X5889749Y-2828056D01*
G01Y-2815610D01*
G01X5893813Y-2807228D01*
G01X5902449Y-2798846D01*
G01X5923277Y-2887238D02*
G01X5923277Y-2937530D01*
G01X5931913D01*
G01X5940295Y-2933466D01*
G01X5944359Y-2929148D01*
G01X5948677Y-2920766D01*
G01Y-2908066D01*
G01X5944359Y-2899684D01*
G01X5935977Y-2891302D01*
G01X5923277Y-2887238D01*
G01X5914895D01*
G01X5902449Y-2891302D01*
G01X5893813Y-2899684D01*
G01X5889749Y-2908066D01*
G01Y-2920766D01*
G01X5893813Y-2929148D01*
G01X5902449Y-2937530D01*
G01X5948677Y-2975630D02*
G01X5889749Y-2975630D01*
G01X5923277Y-2975630D02*
G01X5935977Y-2979694D01*
G01X5944359Y-2988076D01*
G01X5948677Y-2996458D01*
G01Y-3009158D01*
G01X5978141Y-3105932D02*
G01X5889749Y-3047258D01*
G01X5978141Y-3047258D02*
G01X5978141Y-3105932D01*
G01X5889749Y-3047258D02*
G01X5889749Y-3105932D01*
G01X5923277Y-3144032D02*
G01X5923277Y-3194324D01*
G01X5931913D01*
G01X5940295Y-3190260D01*
G01X5944359Y-3185942D01*
G01X5948677Y-3177560D01*
G01Y-3164860D01*
G01X5944359Y-3156478D01*
G01X5935977Y-3148096D01*
G01X5923277Y-3144032D01*
G01X5914895D01*
G01X5902449Y-3148096D01*
G01X5893813Y-3156478D01*
G01X5889749Y-3164860D01*
G01Y-3177560D01*
G01X5893813Y-3185942D01*
G01X5902449Y-3194324D01*
G01X5948677Y-3232424D02*
G01X5889749Y-3232424D01*
G01X5923277Y-3232424D02*
G01X5935977Y-3236488D01*
G01X5944359Y-3244870D01*
G01X5948677Y-3253252D01*
G01Y-3265952D01*
G01X5948677Y-3324880D02*
G01X5944359Y-3316498D01*
G01X5935977Y-3308116D01*
G01X5923277Y-3304052D01*
G01X5914895D01*
G01X5902449Y-3308116D01*
G01X5893813Y-3316498D01*
G01X5889749Y-3324880D01*
G01Y-3337580D01*
G01X5893813Y-3345962D01*
G01X5902449Y-3354344D01*
G01X5914895Y-3358662D01*
G01X5923277D01*
G01X5935977Y-3354344D01*
G01X5944359Y-3345962D01*
G01X5948677Y-3337580D01*
G01Y-3324880D01*
G01X5792003Y-2560943D02*
G01X5703611Y-2527161D01*
G01X5792003Y-2560943D02*
G01X5703611Y-2594471D01*
G01X5733075Y-2539861D02*
G01X5733075Y-2581771D01*
G01X5762539Y-2632571D02*
G01X5703611Y-2632571D01*
G01X5745775Y-2632571D02*
G01X5758221Y-2645017D01*
G01X5762539Y-2653399D01*
G01Y-2666099D01*
G01X5758221Y-2674481D01*
G01X5745775Y-2678799D01*
G01X5703611D01*
G01X5792003Y-2729345D02*
G01X5720375Y-2729345D01*
G01X5707675Y-2733663D01*
G01X5703611Y-2742045D01*
G01Y-2750427D01*
G01X5762539Y-2716899D02*
G01X5762539Y-2746109D01*
G01X5737139Y-2788527D02*
G01X5737139Y-2838819D01*
G01X5745775D01*
G01X5754157Y-2834755D01*
G01X5758221Y-2830437D01*
G01X5762539Y-2822055D01*
G01Y-2809355D01*
G01X5758221Y-2800973D01*
G01X5749839Y-2792591D01*
G01X5737139Y-2788527D01*
G01X5728757D01*
G01X5716311Y-2792591D01*
G01X5707675Y-2800973D01*
G01X5703611Y-2809355D01*
G01Y-2822055D01*
G01X5707675Y-2830437D01*
G01X5716311Y-2838819D01*
G01X5762539Y-2876919D02*
G01X5703611Y-2876919D01*
G01X5745775Y-2876919D02*
G01X5758221Y-2889365D01*
G01X5762539Y-2897747D01*
G01Y-2910447D01*
G01X5758221Y-2918829D01*
G01X5745775Y-2923147D01*
G01X5703611D01*
G01X5762539Y-2961247D02*
G01X5703611Y-2961247D01*
G01X5745775Y-2961247D02*
G01X5758221Y-2973693D01*
G01X5762539Y-2982075D01*
G01Y-2994775D01*
G01X5758221Y-3003157D01*
G01X5745775Y-3007475D01*
G01X5703611D01*
G01X5762539Y-3095867D02*
G01X5703611Y-3095867D01*
G01X5749839Y-3095867D02*
G01X5758221Y-3087485D01*
G01X5762539Y-3079103D01*
G01Y-3066403D01*
G01X5758221Y-3058021D01*
G01X5749839Y-3049639D01*
G01X5737139Y-3045575D01*
G01X5728757D01*
G01X5716311Y-3049639D01*
G01X5707675Y-3058021D01*
G01X5703611Y-3066403D01*
G01Y-3079103D01*
G01X5707675Y-3087485D01*
G01X5716311Y-3095867D01*
G01X5674147Y-3133967D02*
G01X5674147Y-3209659D01*
G01X5792003Y-3247759D02*
G01X5703611Y-3247759D01*
G01X5792003Y-3247759D02*
G01X5792003Y-3285605D01*
G01X5787685Y-3298051D01*
G01X5783621Y-3302369D01*
G01X5774985Y-3306433D01*
G01X5762539D01*
G01X5754157Y-3302369D01*
G01X5749839Y-3298051D01*
G01X5745775Y-3285605D01*
G01Y-3247759D01*
G01X5770921Y-3407525D02*
G01X5779303Y-3403207D01*
G01X5787685Y-3394825D01*
G01X5792003Y-3386443D01*
G01Y-3369679D01*
G01X5787685Y-3361297D01*
G01X5779303Y-3352915D01*
G01X5770921Y-3348597D01*
G01X5758221Y-3344533D01*
G01X5737139D01*
G01X5724693Y-3348597D01*
G01X5716311Y-3352915D01*
G01X5707675Y-3361297D01*
G01X5703611Y-3369679D01*
G01Y-3386443D01*
G01X5707675Y-3394825D01*
G01X5716311Y-3403207D01*
G01X5724693Y-3407525D01*
G01X5792003Y-3445625D02*
G01X5703611Y-3445625D01*
G01X5792003Y-3445625D02*
G01X5792003Y-3483471D01*
G01X5787685Y-3495917D01*
G01X5783621Y-3500235D01*
G01X5774985Y-3504299D01*
G01X5766603D01*
G01X5758221Y-3500235D01*
G01X5754157Y-3495917D01*
G01X5749839Y-3483471D01*
G01X5749839Y-3445625D02*
G01X5749839Y-3483471D01*
G01X5745775Y-3495917D01*
G01X5741457Y-3500235D01*
G01X5733075Y-3504299D01*
G01X5720375D01*
G01X5711993Y-3500235D01*
G01X5707675Y-3495917D01*
G01X5703611Y-3483471D01*
G01Y-3445625D01*
G01X5553084Y-2524964D02*
G01X5557402Y-2533346D01*
G01X5570102Y-2546046D01*
G01X5481710D01*
G01X5549020Y-2588210D02*
G01X5553084Y-2588210D01*
G01X5561720Y-2592528D01*
G01X5565784Y-2596592D01*
G01X5570102Y-2604974D01*
G01Y-2621992D01*
G01X5565784Y-2630374D01*
G01X5561720Y-2634438D01*
G01X5553084Y-2638756D01*
G01X5544702D01*
G01X5536320Y-2634438D01*
G01X5523874Y-2626056D01*
G01X5481710Y-2584146D01*
G01Y-2642820D01*
G01X5502792Y-2684984D02*
G01X5498474Y-2680920D01*
G01X5494410Y-2684984D01*
G01X5498474Y-2689302D01*
G01X5502792Y-2684984D01*
G01X5570102Y-2727402D02*
G01X5481710Y-2727402D01*
G01X5570102Y-2727402D02*
G01X5570102Y-2782012D01*
G01X5527938Y-2727402D02*
G01X5527938Y-2760930D01*
G01X5570102Y-2878786D02*
G01X5481710Y-2836876D01*
G01X5570102Y-2820112D02*
G01X5570102Y-2878786D01*
G01X5570102Y-2916886D02*
G01X5481710Y-2916886D01*
G01X5570102Y-2916886D02*
G01X5570102Y-2954732D01*
G01X5565784Y-2967178D01*
G01X5561720Y-2971496D01*
G01X5553084Y-2975560D01*
G01X5544702D01*
G01X5536320Y-2971496D01*
G01X5532256Y-2967178D01*
G01X5527938Y-2954732D01*
G01X5527938Y-2916886D02*
G01X5527938Y-2954732D01*
G01X5523874Y-2967178D01*
G01X5519556Y-2971496D01*
G01X5511174Y-2975560D01*
G01X5498474D01*
G01X5490092Y-2971496D01*
G01X5485774Y-2967178D01*
G01X5481710Y-2954732D01*
G01Y-2916886D01*
G01X5540638Y-3068270D02*
G01X5527938Y-3063952D01*
G01X5519556Y-3055570D01*
G01X5515238Y-3042870D01*
G01Y-3038806D01*
G01X5519556Y-3026106D01*
G01X5527938Y-3017724D01*
G01X5540638Y-3013660D01*
G01X5544702D01*
G01X5557402Y-3017724D01*
G01X5565784Y-3026106D01*
G01X5570102Y-3038806D01*
G01Y-3042870D01*
G01X5565784Y-3055570D01*
G01X5557402Y-3063952D01*
G01X5540638Y-3068270D01*
G01X5519556D01*
G01X5498474Y-3063952D01*
G01X5485774Y-3055570D01*
G01X5481710Y-3042870D01*
G01Y-3034488D01*
G01X5485774Y-3022042D01*
G01X5494410Y-3017724D01*
G01X5549020Y-3169362D02*
G01X5557402Y-3165044D01*
G01X5565784Y-3156662D01*
G01X5570102Y-3148280D01*
G01Y-3131516D01*
G01X5565784Y-3123134D01*
G01X5557402Y-3114752D01*
G01X5549020Y-3110434D01*
G01X5536320Y-3106370D01*
G01X5515238D01*
G01X5502792Y-3110434D01*
G01X5494410Y-3114752D01*
G01X5485774Y-3123134D01*
G01X5481710Y-3131516D01*
G01Y-3148280D01*
G01X5485774Y-3156662D01*
G01X5494410Y-3165044D01*
G01X5502792Y-3169362D01*
G01X5570102Y-3266136D02*
G01X5481710Y-3224226D01*
G01X5570102Y-3207462D02*
G01X5570102Y-3266136D01*
G04 Text End*

G04 Rect Start*
G54D11*
G01X572498Y-1002793D02*
G01X572498Y-3848488D01*
G01X1775496D01*
G01Y-1002793D01*
G01X572498D01*
G01X4143466Y-1006689D02*
G01X4143466Y-3852384D01*
G01X5346464D01*
G01Y-1006689D01*
G01X4143466D01*
G36*
G01X5441750Y-1066740D02*
G01X5441750Y-2455350D01*
G01X6044200D01*
G01Y-1066740D01*
G01X5441750D01*
G37*
G04 Rect End*

M02*
